PathFileType	4	(X/Y/Z)	E:\Marcel_BSc\Ayumi_22_01_2025\22-01-2025\conv_dl_3.trc
DataRate	CameraRate	NumFrames	NumMarkers	Units	OrigDataRate	OrigDataStartFrame	OrigNumFrames
200.0	200.0	8	47	mm	200.0	577	2304	
Frame#	Time	FHD			LBHD			RBHD			RBAR			LBAR			RSACR			LSACR			USACR			C7			CLAV			T10			RSHO			LSHO			LTHI1			LTHI3			LTHI2			LTIB1			LTIB2			LTIB3			LMMAL			LLMAL			LHEE			LMT1			LMT5			LMT3			RTHI1			RTHI2			RTHI3			RTIB1			RTIB3			RTIB2			RLMAL			RMMAL			RHEE			RMT5			RMT1			RMT3			LDUPA			LMUPA			LUUPA			LRAD			RUL			RRAD			RUFIN			RMUPA			RDUPA			RUUPA			
		X1	Y1	Z1	X2	Y2	Z2	X3	Y3	Z3	X4	Y4	Z4	X5	Y5	Z5	X6	Y6	Z6	X7	Y7	Z7	X8	Y8	Z8	X9	Y9	Z9	X10	Y10	Z10	X11	Y11	Z11	X12	Y12	Z12	X13	Y13	Z13	X14	Y14	Z14	X15	Y15	Z15	X16	Y16	Z16	X17	Y17	Z17	X18	Y18	Z18	X19	Y19	Z19	X20	Y20	Z20	X21	Y21	Z21	X22	Y22	Z22	X23	Y23	Z23	X24	Y24	Z24	X25	Y25	Z25	X26	Y26	Z26	X27	Y27	Z27	X28	Y28	Z28	X29	Y29	Z29	X30	Y30	Z30	X31	Y31	Z31	X32	Y32	Z32	X33	Y33	Z33	X34	Y34	Z34	X35	Y35	Z35	X36	Y36	Z36	X37	Y37	Z37	X38	Y38	Z38	X39	Y39	Z39	X40	Y40	Z40	X41	Y41	Z41	X42	Y42	Z42	X43	Y43	Z43	X44	Y44	Z44	X45	Y45	Z45	X46	Y46	Z46	X47	Y47	Z47	
577	2.875	-236.55023	745.61993	-618.1507	-220.32285	763.6084	-559.0899	-201.28879	778.94092	-688.55371	168.54353	239.96967	-1728.2264	154.38277	251.49605	494.23288	456.78116	805.86938	-683.78528	457.92877	807.71442	-611.8067	446.01596	810.74133	-645.77356	-10.510731	906.55914	-613.70538	33.871258	751.68982	-627.9173	275.94434	877.4563	-637.39258	-22.603682	764.99188	-754.99731	2.8814619	765.26886	-467.8295	303.44836	526.74432	-446.10071	266.88809	474.87756	-463.53204	238.53082	515.79614	-453.63315	193.71509	224.51442	-453.42572	257.15536	238.11935	-441.69812	238.21381	174.99277	-446.14545	256.66769	72.964165	-528.00311	275.38422	73.92424	-452.1207	318.22238	37.255348	-495.51376	120.90157	45.504448	-480.45255	150.98277	28.151821	-405.15646	123.40969	42.61063	-445.13989	309.03021	516.79816	-844.05914	244.08534	508.56686	-839.05536	271.37631	466.55267	-823.73236	205.03423	262.04709	-840.35651	238.97581	207.33482	-831.35797	254.90463	270.27765	-837.4577	283.58484	74.868332	-806.94873	249.50925	77.386566	-735.31854	328.50034	31.703606	-759.85834	149.07286	38.562695	-839.42383	129.13004	41.966904	-788.19568	136.53337	39.626896	-818.02454	154.98065	620.39166	-414.4487	106.63803	608.66565	-411.21637	91.545311	668.59857	-410.33331	202.3105	309.2059	-353.58472	103.29485	301.33795	-927.9259	112.24751	297.34256	-866.19824	122.72525	224.96985	-863.62085	29.066122	695.17419	-853.26318	46.84351	639.93091	-876.43286	69.352402	715.66119	-873.77502
578	2.88	-236.60719	745.6438	-617.99884	-220.37923	763.66553	-558.92206	-201.30383	778.90961	-688.41211	168.17297	240.11612	-1728.4152	154.28586	251.47775	494.23019	456.70444	805.75909	-683.70673	457.86365	807.61884	-611.73755	445.93057	810.61084	-645.71643	-10.525262	906.58612	-613.61847	33.774242	751.76544	-627.71942	275.89792	877.41431	-637.38232	-22.632761	764.83356	-754.84753	2.9121599	765.24866	-467.85153	303.25873	526.78143	-445.95166	266.66602	474.8382	-463.38144	238.34479	515.78778	-453.47675	193.60049	224.41452	-453.38483	257.02603	238.06003	-441.64114	238.16043	174.92712	-446.07504	256.68011	72.959404	-527.96039	275.39508	73.918945	-452.08057	318.23291	37.236496	-495.50049	120.87867	45.519054	-480.46771	150.97151	28.146818	-405.15259	123.39818	42.60701	-445.13956	308.82925	516.71942	-843.9649	243.90581	508.48227	-839.02924	271.18405	466.4332	-823.67334	204.92125	262.03046	-840.35132	238.84142	207.31219	-831.36542	254.77946	270.26865	-837.4209	283.60434	74.845688	-806.94299	249.49574	77.36322	-735.30841	328.49661	31.710527	-759.85596	149.06543	38.555695	-839.42096	129.11118	42.036449	-788.10126	136.55559	39.61076	-818.01044	154.83638	620.49274	-414.28613	106.51669	608.77875	-410.96439	91.467667	668.7262	-410.12619	202.3311	309.24997	-353.2265	103.18432	301.28946	-927.86115	112.19003	297.32651	-866.13696	122.69079	224.91293	-863.59778	28.896137	695.19958	-853.06873	46.609291	639.95905	-876.27368	69.159668	715.63733	-873.63318
579	2.885	-236.6256	745.69946	-617.83014	-220.43217	763.76471	-558.77466	-201.33356	778.90875	-688.28479	168.29543	239.75496	-1728.4128	154.14119	251.48476	494.28012	456.59238	805.70605	-683.64343	457.74777	807.55743	-611.6615	445.85422	810.45056	-645.66461	-10.563583	906.62695	-613.52838	33.669491	751.86304	-627.49805	275.85626	877.37036	-637.34576	-22.581741	764.58954	-754.71912	2.9292333	765.245	-467.86664	303.07196	526.67554	-445.88077	266.45911	474.81406	-463.25229	238.16098	515.79193	-453.34222	193.50319	224.48091	-453.31668	256.95251	238.06889	-441.51669	238.03241	174.95334	-446.02393	256.69168	72.994972	-527.92035	275.39847	73.914795	-452.05191	318.23129	37.272503	-495.46634	121.3829	45.534035	-479.97003	150.97455	28.141296	-405.14688	123.4192	42.600479	-445.14499	308.39307	517.06317	-843.85016	243.77673	508.32593	-839.0307	270.97665	466.31348	-823.61652	204.78108	262.00146	-840.34619	238.76506	207.30536	-831.37256	254.60875	270.28558	-837.41663	283.55539	74.879372	-806.94019	249.49963	77.372261	-735.30328	328.4863	31.698231	-759.85529	149.08551	38.552383	-839.42297	129.14386	41.959576	-788.19836	136.49641	39.667782	-818.05347	154.72542	620.5943	-414.06061	106.415	608.93756	-410.6358	91.383621	668.88605	-409.89203	202.35304	308.95987	-353.2869	103.09207	301.23544	-927.80365	112.16201	297.3165	-866.08099	122.64235	224.9026	-863.55878	28.723686	695.21918	-852.88654	46.418568	639.95386	-876.15234	68.974731	715.62457	-873.4798
580	2.89	-236.66957	745.7453	-617.69275	-220.479	763.82147	-558.62561	-201.37483	778.92065	-688.15106	168.1268	239.75609	-1728.4153	154.04591	251.472	494.26404	456.49014	805.60345	-683.5705	457.61752	807.50439	-611.56512	445.8114	810.39722	-645.61688	-10.598693	906.64117	-613.4256	33.558762	751.927	-627.29248	275.80359	877.34863	-637.32898	-22.732994	764.59363	-754.55469	2.9375341	765.17053	-467.91202	302.94635	526.60126	-445.74762	266.27609	474.73911	-463.1257	237.97015	515.78656	-453.19363	193.36386	224.40724	-453.23816	256.80008	238.02283	-441.40964	237.9519	174.9222	-445.93915	256.65503	73.005051	-527.92102	275.40002	73.916367	-452.02042	318.23364	37.269691	-495.45193	121.3901	45.511662	-479.95282	150.97685	28.12993	-405.13522	123.41653	42.584976	-445.1485	308.33636	516.74927	-843.77722	243.61159	508.25125	-838.90167	270.76962	466.17935	-823.53436	204.62341	262.02051	-840.29938	238.65044	207.31546	-831.36298	254.47229	270.30115	-837.39764	283.58765	74.862564	-806.93622	249.49919	77.356331	-735.28442	328.48938	31.712961	-759.85272	149.05724	38.564175	-839.43884	129.13176	41.955475	-788.21851	136.54059	39.617802	-818.01813	154.63692	620.71387	-413.81232	106.33354	609.03278	-410.3248	91.308762	669.00763	-409.65851	202.36232	309.00027	-352.93747	102.99032	301.20377	-927.72998	112.12118	297.28787	-866.03235	122.5603	224.84052	-863.55438	28.606464	695.16901	-852.71143	46.263023	639.94702	-875.98944	68.832367	715.56982	-873.35211
581	2.895	-236.71489	745.79803	-617.56415	-220.51915	763.87665	-558.50873	-201.39401	778.90564	-688.03174	168.0403	239.77998	-1728.3956	153.96776	251.46106	494.2496	456.38559	805.48267	-683.52307	457.53864	807.39642	-611.53009	445.75363	810.22717	-645.61273	-10.648125	906.70905	-613.30383	33.480869	751.93701	-627.14484	275.73154	877.32501	-637.30438	-22.91	764.59387	-754.37524	2.9151435	765.15912	-467.92767	302.73163	526.58423	-445.5332	266.09808	474.73804	-462.96301	237.70164	515.73547	-453.09644	193.22975	224.37834	-453.18793	256.65927	238.06831	-441.35284	237.86513	174.89809	-445.86261	256.7023	73.051193	-527.8551	275.40671	73.905487	-451.98355	318.23108	37.290546	-495.45428	121.39044	45.487309	-479.97192	150.97409	28.140779	-405.13776	123.41135	42.558174	-445.14868	308.12885	516.75629	-843.62341	243.4037	508.12067	-838.81805	270.61542	466.05792	-823.44232	204.52122	261.97287	-840.26483	238.56393	207.2845	-831.34192	254.34294	270.25055	-837.38434	283.5513	74.872864	-806.9223	249.48117	77.345604	-735.28674	328.49451	31.719555	-759.84906	149.07675	38.543201	-839.42621	129.1468	41.923992	-788.22473	136.53073	39.621178	-818.03394	154.55479	620.78552	-413.58255	106.25909	609.13574	-410.04764	91.257957	669.08087	-409.43051	202.3237	309.28171	-352.16165	102.87807	301.20035	-927.63544	112.10316	297.27637	-865.96484	122.49093	224.79216	-863.52899	28.48024	695.16418	-852.53015	46.146851	639.9024	-875.84277	68.714134	715.53131	-873.22821
582	2.9	-236.74342	745.83722	-617.43732	-220.57249	763.94843	-558.36682	-201.4333	778.92865	-687.91614	167.88255	239.76497	-1728.4161	153.87064	251.45334	494.25378	456.27884	805.32477	-683.47253	457.41772	807.31384	-611.48212	445.65686	810.16443	-645.55914	-10.685904	906.71759	-613.18677	33.382023	751.992	-626.9848	275.67953	877.23676	-637.30347	-23.113461	764.63416	-754.17188	2.9125519	765.08203	-467.95352	302.46106	526.54254	-445.45166	265.88373	474.74753	-462.77438	237.47748	515.69897	-452.97357	193.06075	224.35265	-453.12164	256.49399	238.08833	-441.2157	237.72682	174.8737	-445.79013	256.71796	73.04509	-527.79602	275.40601	73.909142	-451.95837	318.21832	37.299145	-495.42398	121.39809	45.474926	-479.96573	150.97522	28.139502	-405.12656	123.42733	42.51955	-445.14383	307.9863	516.60852	-843.52783	243.22304	508.01605	-838.7486	270.43173	465.93469	-823.35547	204.40646	261.90784	-840.25323	238.45393	207.27412	-831.30994	254.217	270.23853	-837.34851	283.54953	74.871361	-806.91461	249.49396	77.340073	-735.25323	328.4982	31.72937	-759.85083	149.0726	38.561424	-839.42163	129.14838	41.955154	-788.22437	136.53557	39.615086	-818.02625	154.47791	620.8501	-413.36456	106.22581	609.27362	-409.79678	91.206032	669.17487	-409.21252	202.27434	309.19162	-351.78409	102.79893	301.15295	-927.58698	112.06593	297.26639	-865.90869	122.4213	224.71852	-863.53723	28.359774	695.15497	-852.34204	46.028374	639.90222	-875.66437	68.620445	715.49365	-873.0448
583	2.905	-236.80386	745.85004	-617.35687	-220.65013	764.00525	-558.26733	-201.45958	778.91931	-687.81891	167.8889	239.76805	-1728.3352	153.74178	251.45309	494.25491	456.15842	805.19916	-683.43549	457.28482	807.24084	-611.44208	445.52631	810.13971	-645.46954	-10.743914	906.72937	-613.073	33.260139	752.01367	-626.79309	275.60263	877.21014	-637.27759	-23.362331	764.73273	-753.95215	2.8586864	765.15692	-467.74207	302.28143	526.51715	-445.29013	265.68042	474.74838	-462.60202	237.29271	515.65057	-452.82513	192.90741	224.22301	-453.03186	256.30511	238.03871	-441.10635	237.68611	174.83763	-445.65845	256.7262	73.086517	-527.76782	275.44308	73.946541	-451.87961	318.20822	37.313183	-495.42285	121.45877	45.470314	-479.91895	150.96707	28.128901	-405.11426	123.42641	42.520031	-445.13895	307.78232	516.54926	-843.414	243.04198	507.92139	-838.60474	270.25705	465.8244	-823.28033	204.27202	261.89157	-840.19891	238.37862	207.26851	-831.27264	254.10423	270.22897	-837.31097	283.53687	74.878212	-806.88867	249.47835	77.346977	-735.26062	328.49521	31.726837	-759.84314	149.08998	38.544262	-839.40582	129.12978	41.967522	-788.2287	136.55408	39.606453	-818.01538	154.42726	620.88556	-413.15274	106.16746	609.32904	-409.54599	91.19223	669.25641	-408.99454	202.18102	309.12387	-351.43747	102.73911	301.14172	-927.51611	112.0481	297.25909	-865.84717	122.32088	224.63879	-863.56049	28.121904	695.36102	-852.16681	45.97934	639.86737	-875.51489	68.51281	715.53314	-872.84021
584	2.91	-236.8564	745.86871	-617.25732	-220.7188	764.04742	-558.18384	-201.5274	778.98358	-687.67828	167.80782	239.77774	-1728.3521	153.61719	251.45146	494.25439	456.07199	805.01855	-683.3999	457.18054	807.11938	-611.41205	445.39703	810.07385	-645.39667	-10.802135	906.77429	-612.94989	33.174332	751.99182	-626.66174	275.51822	877.15472	-637.25867	-23.58786	764.79895	-753.76697	2.7893262	765.24365	-467.54031	302.05768	526.61761	-445.08722	265.58334	474.66867	-462.4184	237.08315	515.59229	-452.6861	192.80351	224.19357	-452.93661	256.20953	238.03046	-440.995	237.59592	174.7832	-445.5535	256.73404	73.11541	-527.71124	275.44342	73.941528	-451.84647	318.2124	37.314125	-495.41019	121.47409	45.452145	-479.90665	150.96671	28.110924	-405.10477	123.42102	42.509682	-445.1488	308.23734	515.65234	-843.20502	242.8784	507.85934	-838.48877	270.08234	465.73145	-823.16754	204.12926	261.87531	-840.14136	238.29221	207.22446	-831.211	253.96347	270.2074	-837.27802	283.53595	74.886002	-806.88672	249.45221	77.31871	-735.23566	328.4859	31.731319	-759.84705	149.07288	38.542793	-839.41229	129.11119	42.025692	-788.11664	136.52499	39.610554	-818.02631	154.40076	620.93646	-412.92096	106.11823	609.39746	-409.29825	91.121834	669.28174	-408.78607	202.0784	308.77493	-351.54822	102.69216	301.13336	-927.46765	112.01336	297.25989	-865.77753	122.23331	224.60361	-863.54871	28.069588	695.30414	-852.00879	45.930622	639.86267	-875.35223	68.435532	715.52783	-872.66058
